<mxfile host="app.diagrams.net" modified="2024-03-20T04:08:58.211Z" agent="Mozilla/5.0 (Windows NT 10.0; Win64; x64) AppleWebKit/537.36 (KHTML, like Gecko) Chrome/122.0.0.0 Safari/537.36" etag="b6aZq0cFUK3ivZ2MFXq9" version="24.0.7" type="device">
  <diagram name="Page-1" id="O24dVKsFdaV_IP2Ak3r5">
    <mxGraphModel dx="1050" dy="522" grid="1" gridSize="10" guides="1" tooltips="1" connect="1" arrows="1" fold="1" page="1" pageScale="1" pageWidth="827" pageHeight="1169" math="0" shadow="0">
      <root>
        <mxCell id="0" />
        <mxCell id="1" parent="0" />
        <mxCell id="uc_Y827qc7djy83SkI0h-15" value="" style="shape=or;whiteSpace=wrap;html=1;rotation=-90;fillColor=#E5CCFF;" parent="1" vertex="1">
          <mxGeometry x="332.5" y="-12.5" width="205" height="460" as="geometry" />
        </mxCell>
        <mxCell id="uc_Y827qc7djy83SkI0h-13" value="" style="shape=or;whiteSpace=wrap;html=1;rotation=90;fillColor=#B3FF66;" parent="1" vertex="1">
          <mxGeometry x="283.75" y="213.75" width="305" height="552.5" as="geometry" />
        </mxCell>
        <mxCell id="uc_Y827qc7djy83SkI0h-2" value="A" style="ellipse;whiteSpace=wrap;html=1;aspect=fixed;fillColor=#99CCFF;" parent="1" vertex="1">
          <mxGeometry x="260" y="210" width="340" height="340" as="geometry" />
        </mxCell>
        <mxCell id="uc_Y827qc7djy83SkI0h-1" value="&lt;font style=&quot;&quot;&gt;&lt;b style=&quot;&quot;&gt;&lt;font style=&quot;font-size: 18px;&quot;&gt;Domain&lt;/font&gt;&lt;/b&gt;&lt;br&gt;&lt;b style=&quot;&quot;&gt;&lt;font style=&quot;font-size: 18px;&quot;&gt;- only Business Logic&lt;/font&gt;&lt;/b&gt;&lt;/font&gt;" style="ellipse;whiteSpace=wrap;html=1;aspect=fixed;fillColor=#FFEC45;" parent="1" vertex="1">
          <mxGeometry x="330" y="280" width="200" height="200" as="geometry" />
        </mxCell>
        <mxCell id="uc_Y827qc7djy83SkI0h-4" value="&lt;font style=&quot;font-size: 18px;&quot;&gt;&lt;b style=&quot;&quot;&gt;Application Layer&lt;/b&gt;&lt;/font&gt;" style="text;html=1;strokeColor=none;fillColor=none;align=center;verticalAlign=middle;whiteSpace=wrap;rounded=0;" parent="1" vertex="1">
          <mxGeometry x="362" y="240" width="158" height="30" as="geometry" />
        </mxCell>
        <mxCell id="uc_Y827qc7djy83SkI0h-14" value="&lt;font style=&quot;font-size: 18px;&quot;&gt;&lt;b style=&quot;&quot;&gt;Infrastructure Layer&lt;/b&gt;&lt;/font&gt;" style="text;html=1;strokeColor=none;fillColor=none;align=center;verticalAlign=middle;whiteSpace=wrap;rounded=0;" parent="1" vertex="1">
          <mxGeometry x="350" y="570" width="170" height="40" as="geometry" />
        </mxCell>
        <mxCell id="uc_Y827qc7djy83SkI0h-16" value="&lt;font style=&quot;font-size: 18px;&quot;&gt;&lt;b style=&quot;&quot;&gt;Presentation Layer&lt;/b&gt;&lt;/font&gt;" style="text;html=1;strokeColor=none;fillColor=none;align=center;verticalAlign=middle;whiteSpace=wrap;rounded=0;" parent="1" vertex="1">
          <mxGeometry x="330" y="160" width="194" height="30" as="geometry" />
        </mxCell>
        <mxCell id="uc_Y827qc7djy83SkI0h-17" value="&lt;b&gt;Infrastructure&lt;/b&gt;&lt;div&gt;&lt;b&gt;Definitions&lt;/b&gt;&lt;/div&gt;" style="rounded=1;whiteSpace=wrap;html=1;" parent="1" vertex="1">
          <mxGeometry x="202" y="360" width="108" height="60" as="geometry" />
        </mxCell>
        <mxCell id="uc_Y827qc7djy83SkI0h-18" value="&lt;span&gt;V&lt;br&gt;&lt;/span&gt;I&lt;br&gt;E&lt;br&gt;W&lt;br&gt;M&lt;br&gt;O&lt;br&gt;D&lt;br&gt;E&lt;br&gt;L&lt;br&gt;S" style="rounded=1;whiteSpace=wrap;html=1;fontStyle=1" parent="1" vertex="1">
          <mxGeometry x="292.5" y="70" width="37.5" height="250" as="geometry" />
        </mxCell>
        <mxCell id="uc_Y827qc7djy83SkI0h-19" value="&lt;b&gt;&lt;font style=&quot;font-size: 12px;&quot;&gt;DOMAN MODELS&lt;/font&gt;&lt;/b&gt;" style="rounded=1;whiteSpace=wrap;html=1;" parent="1" vertex="1">
          <mxGeometry x="310" y="430" width="114" height="40" as="geometry" />
        </mxCell>
        <mxCell id="uc_Y827qc7djy83SkI0h-20" value="" style="shape=cylinder3;whiteSpace=wrap;html=1;boundedLbl=1;backgroundOutline=1;size=15;" parent="1" vertex="1">
          <mxGeometry x="220" y="470" width="50" height="70" as="geometry" />
        </mxCell>
        <mxCell id="uc_Y827qc7djy83SkI0h-21" value="" style="shape=callout;whiteSpace=wrap;html=1;perimeter=calloutPerimeter;position2=0.44;" parent="1" vertex="1">
          <mxGeometry x="550" y="505" width="90" height="70" as="geometry" />
        </mxCell>
        <mxCell id="uc_Y827qc7djy83SkI0h-22" value="" style="shape=hexagon;perimeter=hexagonPerimeter2;whiteSpace=wrap;html=1;fixedSize=1;" parent="1" vertex="1">
          <mxGeometry x="605" y="403.75" width="80" height="60" as="geometry" />
        </mxCell>
        <mxCell id="uc_Y827qc7djy83SkI0h-23" value="&lt;b&gt;DB&lt;/b&gt;" style="text;html=1;strokeColor=none;fillColor=none;align=center;verticalAlign=middle;whiteSpace=wrap;rounded=0;" parent="1" vertex="1">
          <mxGeometry x="215" y="505" width="60" height="30" as="geometry" />
        </mxCell>
        <mxCell id="uc_Y827qc7djy83SkI0h-24" value="&lt;b&gt;EMAIL&lt;/b&gt;" style="text;html=1;strokeColor=none;fillColor=none;align=center;verticalAlign=middle;whiteSpace=wrap;rounded=0;" parent="1" vertex="1">
          <mxGeometry x="565" y="510" width="60" height="30" as="geometry" />
        </mxCell>
        <mxCell id="uc_Y827qc7djy83SkI0h-25" value="&lt;b&gt;HTTP&lt;br&gt;SERVICES&lt;br&gt;&lt;/b&gt;" style="text;html=1;strokeColor=none;fillColor=none;align=center;verticalAlign=middle;whiteSpace=wrap;rounded=0;" parent="1" vertex="1">
          <mxGeometry x="615" y="420" width="60" height="27.5" as="geometry" />
        </mxCell>
      </root>
    </mxGraphModel>
  </diagram>
</mxfile>
